<?xml version="1.0" encoding="UTF-8"?>
<svg id="Laag_1" xmlns="http://www.w3.org/2000/svg" version="1.1" viewBox="0 0 77 44">
  <!-- Generator: Adobe Illustrator 29.7.1, SVG Export Plug-In . SVG Version: 2.1.1 Build 8)  -->
  <defs>
    <style>
      .st0 {
        fill: #006240;
      }
    </style>
  </defs>
  <path class="st0" d="M6.5,7.4v-2h9v2h-3.3v8.9h-2.4V7.4h-3.3Z"/>
  <path class="st0" d="M16.8,14.4c.3.3.8.5,1.4.5s.8-.1,1.1-.3c.3-.2.5-.5.6-.7h1.9c-.3,1-.8,1.6-1.4,2-.6.4-1.4.6-2.3.6s-1.2-.1-1.7-.3c-.5-.2-.9-.5-1.3-.9s-.6-.8-.8-1.3c-.2-.5-.3-1.1-.3-1.7s.1-1.1.3-1.7c.2-.5.5-1,.8-1.3s.8-.7,1.3-.9c.5-.2,1-.3,1.6-.3s1.3.1,1.8.4c.5.3.9.6,1.2,1,.3.4.6.9.7,1.5.1.6.2,1.1.2,1.8h-5.7c0,.7.2,1.2.5,1.5h0ZM19.2,10.2c-.3-.3-.7-.4-1.2-.4s-.6,0-.9.2c-.2.1-.4.3-.5.4s-.2.4-.3.5,0,.4-.1.5h3.5c-.1-.5-.3-1-.5-1.3h0Z"/>
  <path class="st0" d="M26.7,9.8c-.3,0-.6,0-.9.2s-.4.4-.6.6c-.2.3-.3.5-.3.8s0,.6,0,.9,0,.6,0,.9c0,.3.2.6.3.8s.3.4.6.6c.2.2.5.2.9.2.5,0,.9-.1,1.2-.4.3-.3.5-.7.5-1.2h2.1c-.1,1.1-.5,1.9-1.2,2.4s-1.5.8-2.6.8-1.1-.1-1.6-.3c-.5-.2-.9-.5-1.3-.8s-.6-.8-.8-1.3c-.2-.5-.3-1-.3-1.6s0-1.2.3-1.7c.2-.5.4-1,.8-1.4.3-.4.8-.7,1.3-.9.5-.2,1.1-.3,1.7-.3s.9,0,1.4.2c.4.1.8.3,1.2.6.3.3.6.6.8.9s.3.8.4,1.3h-2.1c-.1-.9-.7-1.4-1.6-1.4h0s0,0,0,0Z"/>
  <path class="st0" d="M33.5,5.3v4.1h0c.3-.5.6-.8,1.1-1,.4-.2.9-.3,1.3-.3.6,0,1.1,0,1.4.2s.7.4.9.7c.2.3.4.6.5,1,0,.4.1.9.1,1.3v4.9h-2.2v-4.5c0-.7-.1-1.1-.3-1.5-.2-.3-.6-.5-1.1-.5s-1,.2-1.3.5c-.3.4-.4.9-.4,1.7v4.2h-2.2V5.3h2.2Z"/>
  <path class="st0" d="M42.2,8.4v1.1h0c.3-.5.6-.8,1.1-1s.9-.3,1.3-.3,1.1,0,1.4.2.7.4.9.7c.2.3.4.6.5,1,0,.4.1.9.1,1.3v4.9h-2.2v-4.5c0-.7-.1-1.1-.3-1.5-.2-.3-.6-.5-1.1-.5s-1,.2-1.3.5-.4.9-.4,1.7v4.2h-2.2v-7.9h2.1,0Z"/>
  <path class="st0" d="M48.9,7.1v-1.8h2.2v1.8h-2.2ZM51.1,8.4v7.9h-2.2v-7.9h2.2Z"/>
  <path class="st0" d="M54.8,14.4c.3.3.8.5,1.4.5s.8-.1,1.1-.3c.3-.2.5-.5.6-.7h1.9c-.3,1-.8,1.6-1.4,2-.6.4-1.4.6-2.3.6s-1.2-.1-1.7-.3c-.5-.2-.9-.5-1.3-.9s-.6-.8-.8-1.3c-.2-.5-.3-1.1-.3-1.7s.1-1.1.3-1.7c.2-.5.5-1,.8-1.3s.8-.7,1.3-.9c.5-.2,1-.3,1.6-.3s1.3.1,1.8.4.9.6,1.2,1,.6.9.7,1.5.2,1.1.2,1.8h-5.7c0,.7.2,1.2.5,1.5h0ZM57.3,10.2c-.3-.3-.7-.4-1.2-.4s-.6,0-.9.2c-.2.1-.4.3-.5.4s-.2.4-.3.5,0,.4-.1.5h3.5c-.1-.5-.3-1-.5-1.3h0Z"/>
  <path class="st0" d="M63.3,5.3v5.9l2.7-2.9h2.6l-3,2.9,3.3,5h-2.6l-2.2-3.5-.8.8v2.7h-2.2V5.3h2.2,0Z"/>
  <g>
    <g>
      <path class="st0" d="M23.8,20.2c-.1-.2-.3-.4-.5-.6-.2-.2-.5-.3-.7-.4-.3-.1-.6-.1-.9-.1-.5,0-1,.1-1.4.3s-.7.5-.9.8-.4.8-.5,1.2c-.1.4-.2.9-.2,1.4s0,.9.2,1.3c.1.4.3.8.5,1.2s.5.6.9.8.8.3,1.4.3,1.3-.2,1.7-.7.7-1,.8-1.8h2.3c0,.7-.2,1.3-.5,1.9-.3.5-.6,1-1,1.4s-.9.7-1.5.9c-.6.2-1.2.3-1.9.3s-1.6-.1-2.3-.4-1.2-.7-1.7-1.2c-.5-.5-.8-1.1-1.1-1.8s-.4-1.4-.4-2.2.1-1.6.4-2.3.6-1.3,1.1-1.8c.5-.5,1-.9,1.7-1.2.7-.3,1.4-.4,2.3-.4s1.2,0,1.7.3,1,.4,1.4.8.8.7,1,1.2c.3.5.4,1.1.5,1.7h-2.3c0-.3-.1-.5-.3-.8h0s0,0,0,0Z"/>
      <path class="st0" d="M27.7,22.5c.2-.5.5-1,.8-1.3.4-.4.8-.6,1.3-.8.5-.2,1.1-.3,1.7-.3s1.2.1,1.7.3c.5.2.9.5,1.3.8.4.4.6.8.8,1.3s.3,1.1.3,1.7-.1,1.2-.3,1.7-.5.9-.8,1.3-.8.6-1.3.8-1.1.3-1.7.3-1.2-.1-1.7-.3-.9-.5-1.3-.8c-.4-.4-.6-.8-.8-1.3-.2-.5-.3-1.1-.3-1.7s0-1.2.3-1.7ZM29.6,25.2c0,.3.2.6.3.8.2.2.3.4.6.6.2.1.5.2.9.2s.7,0,.9-.2.4-.3.6-.6.3-.5.3-.8c0-.3,0-.6,0-.9s0-.6,0-.9-.2-.6-.3-.8c-.2-.2-.3-.4-.6-.6-.3-.2-.6-.2-.9-.2s-.7,0-.9.2c-.2.2-.4.3-.6.6s-.3.5-.3.8,0,.6,0,.9,0,.6,0,.9h0Z"/>
      <path class="st0" d="M38.8,17.3v10.9h-2.2v-10.9h2.2Z"/>
      <path class="st0" d="M42.3,17.3v10.9h-2.2v-10.9h2.2Z"/>
      <path class="st0" d="M46.2,26.3c.3.3.8.5,1.4.5s.8-.1,1.1-.3c.3-.2.5-.5.6-.7h1.9c-.3,1-.8,1.6-1.4,2-.6.4-1.4.6-2.3.6s-1.2-.1-1.7-.3c-.5-.2-.9-.5-1.3-.9s-.6-.8-.8-1.3c-.2-.5-.3-1.1-.3-1.7s.1-1.1.3-1.7c.2-.5.5-1,.8-1.3.4-.4.8-.7,1.3-.9.5-.2,1-.3,1.6-.3s1.3.1,1.8.4.9.6,1.2,1c.3.4.6.9.7,1.5.1.6.2,1.1.2,1.8h-5.7c0,.7.2,1.2.5,1.5h0ZM48.7,22.1c-.3-.3-.7-.4-1.2-.4s-.6,0-.9.2c-.2.1-.4.3-.5.4s-.2.4-.3.5,0,.4-.1.5h3.5c-.1-.5-.3-1-.5-1.3h0Z"/>
      <path class="st0" d="M59.8,28.8c0,.4-.3.8-.6,1.1-.3.4-.7.6-1.2.9s-1.3.4-2.2.4-.8,0-1.2-.1c-.4-.1-.8-.2-1.1-.5-.3-.2-.6-.5-.8-.8-.2-.3-.3-.7-.4-1.2h2.2c.1.4.3.7.6.9s.6.2,1,.2c.6,0,1.1-.2,1.3-.5.3-.4.4-.8.4-1.4v-1h0c-.2.4-.6.7-1,.9-.4.2-.9.3-1.4.3s-1.1-.1-1.5-.3c-.4-.2-.8-.5-1.1-.9-.3-.4-.5-.8-.6-1.3-.1-.5-.2-1-.2-1.5s0-1,.2-1.5c.2-.5.4-.9.6-1.3s.6-.6,1.1-.9c.4-.2.9-.3,1.5-.3s1,.1,1.4.3.7.5,1,1h0v-1.1h2.1v7.4c0,.3,0,.7-.1,1.1h0ZM56.8,26.2c.2-.1.4-.3.6-.5.2-.2.3-.4.3-.7,0-.3.1-.5.1-.8s0-.6,0-.9c0-.3-.2-.5-.3-.8-.1-.2-.3-.4-.6-.5s-.5-.2-.9-.2-.6,0-.8.2c-.2.1-.4.3-.5.5-.2.2-.3.4-.3.7s-.1.6-.1.9,0,.6,0,.9c0,.3.2.5.3.8.1.2.3.4.5.5s.5.2.8.2.6,0,.8-.2h0s0,0,0,0Z"/>
      <path class="st0" d="M63.7,26.3c.3.3.8.5,1.4.5s.8-.1,1.1-.3c.3-.2.5-.5.6-.7h1.9c-.3,1-.8,1.6-1.4,2-.6.4-1.4.6-2.3.6s-1.2-.1-1.7-.3c-.5-.2-.9-.5-1.3-.9s-.6-.8-.8-1.3c-.2-.5-.3-1.1-.3-1.7s.1-1.1.3-1.7c.2-.5.5-1,.8-1.3.4-.4.8-.7,1.3-.9.5-.2,1-.3,1.6-.3s1.3.1,1.8.4.9.6,1.2,1c.3.4.6.9.7,1.5.1.6.2,1.1.2,1.8h-5.7c0,.7.2,1.2.5,1.5h0ZM66.2,22.1c-.3-.3-.7-.4-1.2-.4s-.6,0-.9.2c-.2.1-.4.3-.5.4s-.2.4-.3.5,0,.4-.1.5h3.5c-.1-.5-.3-1-.5-1.3h0Z"/>
    </g>
    <g>
      <path class="st0" d="M16.4,30.4h3.1c2.3,0,3.2.9,3.2,2.3s-.7,2-2,2.2c1.2.4,1.8,1.3,2.1,3.2,0,0,0,.4,0,.4h-1.7v-.3c-.2-1.7-.8-2.7-2.4-2.7h-.9v3h-1.5v-8.1h0ZM19.3,34.3c1.4,0,1.8-.8,1.8-1.5s-.5-1.2-1.8-1.2h-1.5v2.7h1.4Z"/>
      <path class="st0" d="M23.2,35.6c0-1.8,1.2-3,3-3s3,1.2,3,3-1.2,3-3,3-2.9-1.2-2.9-3h0ZM27.6,35.7h0c0-1.2-.5-1.8-1.4-1.8s-1.4.7-1.4,1.8h0c0,1.1.5,1.8,1.4,1.8s1.5-.6,1.5-1.7h0Z"/>
      <path class="st0" d="M30.2,37v-3h-.8v-1.2h.8v-1.1l1.5-.8v1.9h1.1v1.2h-1.2v2.9c0,.3.1.4.4.4h.7v1.3h-1.2c-1.1,0-1.4-.6-1.4-1.5h0Z"/>
      <path class="st0" d="M34.2,37v-3h-.8v-1.2h.8v-1.1l1.5-.8v1.9h1.1v1.2h-1.2v2.9c0,.3.1.4.4.4h.7v1.3h-1.2c-1.1,0-1.4-.6-1.4-1.5h0Z"/>
      <path class="st0" d="M37.1,35.6c0-1.8,1.2-3,2.9-3s2.8,1.2,2.8,3v.5h-4.2c.1.8.6,1.3,1.5,1.3s1.2-.4,1.4-.9l1.3.5c-.4.9-1.2,1.6-2.8,1.6s-2.9-1.2-2.9-3h0ZM41.3,35.1c0-.8-.5-1.3-1.3-1.3s-1.3.5-1.4,1.3h2.7,0Z"/>
      <path class="st0" d="M43.7,32.7h1.5v1.1c.2-.7.6-1.1,1.7-1.1h.1v1.5h-.6c-.9,0-1.2.4-1.2,1.4v3h-1.5v-5.8h0Z"/>
      <path class="st0" d="M47.2,35.6c0-1.8,1.1-3,2.6-3s1.3.3,1.8.9v-3.2h1.5v8.3h-1.5v-.8c-.4.5-1,.9-1.8.9-1.5,0-2.6-1.1-2.6-3h0ZM51.6,35.6h0c0-1.1-.5-1.8-1.4-1.8s-1.4.6-1.4,1.8h0c0,1.2.5,1.8,1.4,1.8s1.4-.7,1.4-1.8Z"/>
      <path class="st0" d="M53.9,37c0-1.3,1-1.6,2.3-1.9,1.1-.2,1.6-.3,1.6-.6h0c0-.4-.3-.7-1.1-.7s-1.2.4-1.2.9h0c0,0-1.5,0-1.5,0,0-1.3,1.1-2.2,2.7-2.2s2.5.7,2.5,2.3v3.6h-1.5v-.8c-.4.6-1,.9-1.9.9-1.2,0-2-.7-2-1.7h0ZM57.8,36.1v-.5c-.3.2-.9.3-1.3.4-.6.1-1,.3-1,.9s.3.7.8.7,1.5-.4,1.5-1.5h0Z"/>
      <path class="st0" d="M60.3,32.7h1.5v.9c.3-.7.9-1.1,1.7-1.1s1.3.3,1.6,1.2c.3-.7.9-1.2,1.9-1.2s1.8.9,1.8,2.4v3.6h-1.5v-3.5c0-.8-.3-1.1-.9-1.1s-1,.5-1,1.3v3.3h-1.5v-3.5c0-.7-.3-1.1-.9-1.1s-1,.4-1,1.3v3.3h-1.5v-5.8h0Z"/>
    </g>
  </g>
</svg>